<svg width="146" height="24" viewBox="0 0 146 24" fill="none" xmlns="http://www.w3.org/2000/svg">
<path fill-rule="evenodd" clip-rule="evenodd" d="M19.7104 9.5993V23.1522H34.2598V19.2208H23.9204V13.4939H32.4024V9.5993H19.7104ZM37.9697 9.5993V23.1522H45.1825C45.3579 23.1522 45.7191 23.1471 46.266 23.1368C46.8129 23.1264 47.3391 23.0903 47.8448 23.0284C49.6402 22.8117 51.1622 22.1874 52.4108 21.1556C53.6594 20.1237 54.6087 18.8132 55.2588 17.2241C55.9089 15.635 56.2339 13.8963 56.2339 12.008C56.2339 11.1761 56.1708 10.3732 56.0446 9.5993H51.5157C51.6894 10.3704 51.7762 11.1733 51.7762 12.008C51.7762 13.0708 51.6266 14.1027 51.3273 15.1036C51.0384 16.1045 50.5844 16.961 49.9653 17.673C49.3565 18.385 48.5671 18.839 47.5971 19.0351C47.2153 19.1073 46.7871 19.1537 46.3124 19.1744C45.8378 19.1847 45.4611 19.1898 45.1825 19.1898H42.2417V9.5993H37.9697ZM69.3581 0.863757H59.9474V23.1522H64.1575V15.5989H68.855L72.5156 23.1522H77.2829L73.2588 14.8976C74.2332 14.4676 75.007 13.8449 75.5803 13.0295C76.509 11.6984 76.9733 10.099 76.9733 8.23134C76.9733 6.98277 76.7721 5.85287 76.3697 4.84163C75.9673 3.82007 75.3378 2.97394 74.4814 2.30322C73.6352 1.6325 72.5466 1.19396 71.2155 0.987582C70.9266 0.935988 70.5964 0.905032 70.2249 0.894713C69.8637 0.874075 69.5748 0.863757 69.3581 0.863757ZM69.1724 11.6675H64.1575V4.7952H69.1724C69.3891 4.7952 69.6264 4.80551 69.8844 4.82615C70.1423 4.84679 70.3797 4.88806 70.5964 4.94998C71.1639 5.10476 71.6024 5.36789 71.912 5.73936C72.2216 6.10052 72.4331 6.50811 72.5466 6.96213C72.6704 7.40584 72.7323 7.8289 72.7323 8.23134C72.7323 8.63377 72.6704 9.06199 72.5466 9.51602C72.4331 9.95972 72.2216 10.3673 71.912 10.7388C71.6024 11.0999 71.1639 11.3579 70.5964 11.5127C70.3797 11.5746 70.1423 11.6159 69.8844 11.6365C69.6264 11.6572 69.3891 11.6675 69.1724 11.6675ZM84.4778 22.1616C86.0979 23.1316 88.0223 23.6166 90.2511 23.6166C92.48 23.6166 94.3993 23.1316 96.009 22.1616C97.629 21.1917 98.8724 19.8348 99.7392 18.0909C100.616 16.347 101.055 14.3194 101.055 12.008C101.055 9.6966 100.616 7.66896 99.7392 5.9251C98.8724 4.18123 97.629 2.82432 96.009 1.85436C94.3993 0.884395 92.48 0.399414 90.2511 0.399414C88.0223 0.399414 86.0979 0.884395 84.4778 1.85436C82.8681 2.82432 81.6247 4.18123 80.7476 5.9251C79.8808 7.66896 79.4474 9.6966 79.4474 12.008C79.4474 14.3194 79.8808 16.347 80.7476 18.0909C81.6247 19.8348 82.8681 21.1917 84.4778 22.1616ZM93.7802 18.741C92.8411 19.3704 91.6648 19.6748 90.2511 19.6542C88.8375 19.6335 87.6611 19.3085 86.7221 18.6791C85.7831 18.0496 85.0763 17.1674 84.6016 16.0323C84.1373 14.8972 83.9051 13.5558 83.9051 12.008C83.9051 10.4602 84.1373 9.10843 84.6016 7.95273C85.0763 6.79703 85.7831 5.90446 86.7221 5.27502C87.6611 4.64557 88.8375 4.34117 90.2511 4.36181C91.6648 4.38245 92.8411 4.70749 93.7802 5.33693C94.7192 5.96637 95.4208 6.84862 95.8852 7.98369C96.3598 9.11875 96.5972 10.4602 96.5972 12.008C96.5972 13.5558 96.3598 14.9076 95.8852 16.0633C95.4208 17.219 94.7192 18.1115 93.7802 18.741ZM107.937 22.1616C109.557 23.1316 111.481 23.6166 113.71 23.6166C116.269 23.6166 118.415 22.982 120.149 21.7128C121.893 20.4436 123.121 18.7255 123.833 16.5586L119.592 15.3822C119.179 16.7237 118.483 17.771 117.502 18.5243C116.522 19.2775 115.258 19.6542 113.71 19.6542C112.296 19.6542 111.115 19.3395 110.166 18.71C109.227 18.0806 108.52 17.1932 108.045 16.0478C107.571 14.9024 107.333 13.5558 107.333 12.008C107.333 10.4602 107.571 9.11359 108.045 7.96821C108.52 6.82283 109.227 5.93542 110.166 5.30597C111.115 4.67653 112.296 4.36181 113.71 4.36181C115.258 4.36181 116.522 4.73844 117.502 5.49171C118.483 6.23466 119.179 7.28201 119.592 8.63377L123.833 7.45743C123.121 5.29049 121.893 3.57242 120.149 2.30322C118.415 1.03402 116.269 0.399414 113.71 0.399414C111.481 0.399414 109.557 0.884395 107.937 1.85436C106.327 2.82432 105.084 4.18123 104.207 5.9251C103.34 7.66896 102.906 9.6966 102.906 12.008C102.906 14.3194 103.34 16.347 104.207 18.0909C105.084 19.8348 106.327 21.1917 107.937 22.1616ZM131.451 0.863757H127.241V23.1522H131.451V12.9986L140.335 23.1522H145.66L135.754 11.8532L145.072 0.863757H139.933L131.451 11.1412V0.863757ZM0 0.863757V23.1522H9.87503C11.3919 23.1522 12.6508 22.8685 13.6517 22.3009C14.6526 21.7231 15.3956 20.9285 15.8805 19.9173C16.3758 18.9061 16.6235 17.7349 16.6235 16.4038C16.6235 15.1655 16.2726 14.0459 15.571 13.045C15.0683 12.3173 14.3801 11.7777 13.5065 11.4263C13.9987 11.1271 14.4134 10.7276 14.7506 10.228C15.3182 9.40251 15.6019 8.36548 15.6019 7.11691C15.6019 6.13663 15.3749 5.16667 14.9209 4.20703C14.4669 3.24739 13.7497 2.45284 12.7694 1.8234C11.7892 1.18364 10.5045 0.863757 8.91539 0.863757H0ZM9.44164 19.1898H4.27196V13.4939H9.44164C10.0917 13.4939 10.6335 13.6177 11.0668 13.8654C11.5106 14.1027 11.8408 14.4277 12.0574 14.8405C12.2741 15.2532 12.3825 15.7227 12.3825 16.249C12.3825 16.8475 12.2535 17.3686 11.9955 17.8123C11.7479 18.2457 11.4022 18.5862 10.9585 18.8338C10.5148 19.0712 10.0092 19.1898 9.44164 19.1898ZM8.85348 9.56245H4.27196V4.7952H8.85348C9.65834 4.7952 10.2723 5.02737 10.6954 5.49171C11.1184 5.95605 11.33 6.52874 11.33 7.20978C11.33 7.75667 11.2216 8.20554 11.0049 8.55638C10.7882 8.89689 10.4942 9.1497 10.1227 9.3148C9.75121 9.4799 9.32814 9.56245 8.85348 9.56245Z" fill="white"/>
<rect width="18.05" height="4" transform="matrix(1 0 0 -1 38 13.5996)" fill="white"/>
<path d="M53.0756 3.91139C53.0756 2.52381 51.9508 1.39896 50.5632 1.39896C49.1756 1.39896 48.0508 2.52381 48.0508 3.91139C48.0508 5.29897 49.1756 6.42383 50.5632 6.42383C51.9508 6.42383 53.0756 5.29897 53.0756 3.91139Z" fill="#FF004C"/>
<path d="M43.0249 3.91139C43.0249 2.52381 41.9 1.39896 40.5124 1.39896C39.1249 1.39896 38 2.52381 38 3.91139C38 5.29897 39.1249 6.42383 40.5124 6.42383C41.9 6.42383 43.0249 5.29897 43.0249 3.91139Z" fill="#FF004C"/>
</svg>
