<svg width="19" height="19" viewBox="0 0 19 19" fill="none" xmlns="http://www.w3.org/2000/svg">
<path fill-rule="evenodd" clip-rule="evenodd" d="M15.0962 15.0971C11.9898 18.0973 7.05215 18.0544 3.99843 15.0006C0.944701 11.9469 0.901794 7.00924 3.90199 3.90291C7.00832 0.90271 11.946 0.945617 14.9997 3.99934C18.0534 7.05307 18.0964 11.9907 15.0962 15.0971ZM12.8716 7.25166L10.6153 9.49999L12.8716 11.7483C13.0214 11.897 13.1057 12.0993 13.1057 12.3104C13.1057 12.5215 13.0214 12.7238 12.8716 12.8725C12.7222 13.0207 12.5199 13.1033 12.3095 13.1021C12.0991 13.1033 11.8968 13.0207 11.7474 12.8725L9.49907 10.6162L7.25074 12.8725C7.10134 13.0207 6.89909 13.1033 6.68866 13.1021C6.47823 13.1033 6.27598 13.0207 6.12657 12.8725C5.9767 12.7238 5.8924 12.5215 5.8924 12.3104C5.8924 12.0993 5.9767 11.897 6.12657 11.7483L8.38282 9.49999L6.12657 7.25166C5.92576 7.05084 5.84733 6.75815 5.92084 6.48384C5.99434 6.20952 6.20861 5.99526 6.48292 5.92175C6.75724 5.84825 7.04993 5.92668 7.25074 6.12749L9.49907 8.38374L11.7474 6.12749C11.9482 5.92668 12.2409 5.84825 12.5152 5.92175C12.7895 5.99526 13.0038 6.20952 13.0773 6.48384C13.1508 6.75815 13.0724 7.05084 12.8716 7.25166ZM5.02488 5.02248C7.4971 2.54935 11.5059 2.54786 13.9799 5.01916C15.179 6.20185 15.854 7.81579 15.854 9.49999C15.854 11.1842 15.179 12.7981 13.9799 13.9808C11.5059 16.4521 7.4971 16.4506 5.02488 13.9775C2.55267 11.5044 2.55267 7.49561 5.02488 5.02248Z" fill="#FF2D55"/>
</svg>
