<svg width="19" height="19" viewBox="0 0 19 19" fill="none" xmlns="http://www.w3.org/2000/svg">
<path fill-rule="evenodd" clip-rule="evenodd" d="M17.4154 9.49998C17.4154 13.8722 13.871 17.4166 9.4987 17.4166C5.12644 17.4166 1.58203 13.8722 1.58203 9.49998C1.58203 5.12773 5.12644 1.58331 9.4987 1.58331C11.5983 1.58331 13.612 2.41739 15.0966 3.90205C16.5813 5.38671 17.4154 7.40035 17.4154 9.49998ZM10.2904 10.2916V5.54165C10.2904 5.10442 9.93592 4.74998 9.4987 4.74998C9.06147 4.74998 8.70703 5.10442 8.70703 5.54165V10.2916C8.70703 10.7289 9.06147 11.0833 9.4987 11.0833C9.93592 11.0833 10.2904 10.7289 10.2904 10.2916ZM9.79953 12.73C9.84998 12.7473 9.8979 12.7713 9.94203 12.8012C9.9835 12.8305 10.0232 12.8622 10.0608 12.8962C10.2054 13.0479 10.2874 13.2487 10.2904 13.4583C10.2916 13.6687 10.209 13.871 10.0608 14.0204C9.98383 14.0903 9.89547 14.1466 9.79953 14.1866C9.60792 14.2713 9.38948 14.2713 9.19786 14.1866C9.10193 14.1466 9.01356 14.0903 8.93661 14.0204C8.78842 13.871 8.70581 13.6687 8.70703 13.4583C8.70581 13.2479 8.78842 13.0456 8.93661 12.8962C9.12377 12.7109 9.39084 12.6308 9.64911 12.6825C9.70155 12.6898 9.75239 12.7059 9.79953 12.73ZM9.4987 3.16665C12.9965 3.16665 15.832 6.00218 15.832 9.49998C15.832 11.1797 15.1648 12.7906 13.977 13.9783C12.7893 15.1661 11.1784 15.8333 9.4987 15.8333C6.00089 15.8333 3.16536 12.9978 3.16536 9.49998C3.16536 6.00218 6.00089 3.16665 9.4987 3.16665Z" fill="#FF9F24"/>
</svg>
