<svg width="24" height="24" viewBox="0 0 24 24" fill="none" xmlns="http://www.w3.org/2000/svg">
<path d="M19.6501 15.76L12.6501 21.76C12.5989 21.7938 12.5455 21.8238 12.4901 21.85L12.3701 21.93C12.1325 22.0246 11.8677 22.0246 11.6301 21.93L11.5101 21.85C11.4547 21.8238 11.4012 21.7938 11.3501 21.76L4.35007 15.76C3.93033 15.401 3.88108 14.7697 4.24007 14.35C4.59905 13.9303 5.23033 13.881 5.65007 14.24L11.0001 18.83V3C11.0001 2.44772 11.4478 2 12.0001 2C12.5524 2 13.0001 2.44772 13.0001 3V18.83L18.3501 14.24C18.7698 13.881 19.4011 13.9303 19.7601 14.35C20.1191 14.7697 20.0698 15.401 19.6501 15.76Z" fill="#FF004C"/>
</svg>
