<svg width="16" height="16" viewBox="0 0 16 16" fill="none" xmlns="http://www.w3.org/2000/svg">
<path d="M10.7509 1.66406H4.42739C2.6812 1.66406 1.26562 3.07963 1.26562 4.82583V11.1494C1.26562 12.8956 2.6812 14.3111 4.42739 14.3111H10.7509C12.4971 14.3111 13.9127 12.8956 13.9127 11.1494V4.82583C13.9127 3.07963 12.4971 1.66406 10.7509 1.66406Z" fill="white"/>
<path d="M10.1174 7.58906C10.1954 8.11533 10.1056 8.65281 9.86052 9.12505C9.61548 9.59729 9.22778 9.98024 8.75255 10.2194C8.27732 10.4586 7.73878 10.5419 7.2135 10.4574C6.68823 10.3728 6.20299 10.1248 5.82679 9.74864C5.45059 9.37244 5.20259 8.8872 5.11806 8.36193C5.03354 7.83665 5.1168 7.29811 5.35599 6.82288C5.59519 6.34765 5.97814 5.95995 6.45038 5.71491C6.92262 5.46988 7.4601 5.37999 7.98638 5.45803C8.52319 5.53763 9.02018 5.78778 9.40392 6.17151C9.78766 6.55525 10.0378 7.05224 10.1174 7.58906Z" stroke="#1E266D" stroke-width="2" stroke-linecap="round" stroke-linejoin="round"/>
<path d="M11.0664 4.50977H11.0732" stroke="#1E266D" stroke-width="2" stroke-linecap="round" stroke-linejoin="round"/>
</svg>
