<svg width="16" height="16" viewBox="0 0 16 16" fill="none" xmlns="http://www.w3.org/2000/svg">
<path d="M15.3688 2.2964C14.7632 2.72354 14.0928 3.05023 13.3832 3.2639C13.0024 2.826 12.4962 2.51563 11.9332 2.37476C11.3703 2.2339 10.7776 2.26933 10.2354 2.47627C9.69322 2.68322 9.22766 3.05168 8.90171 3.53184C8.57576 4.01199 8.40513 4.58067 8.41291 5.16096V5.79331C7.30164 5.82212 6.20048 5.57566 5.20752 5.07587C4.21456 4.57608 3.36061 3.83848 2.72174 2.92875C2.72174 2.92875 0.192325 8.61993 5.8835 11.1493C4.58119 12.0333 3.02979 12.4766 1.45703 12.414C7.14821 15.5758 14.1041 12.414 14.1041 5.14199C14.1035 4.96585 14.0866 4.79014 14.0535 4.61713C14.6989 3.98067 15.1543 3.17708 15.3688 2.2964Z" fill="white"/>
</svg>
