<svg width="32" height="32" viewBox="0 0 32 32" fill="none" xmlns="http://www.w3.org/2000/svg">
<path fill-rule="evenodd" clip-rule="evenodd" d="M27.0813 18.7334C26.7708 18.9088 26.4723 19.1048 26.188 19.32C26.2878 19.6811 26.4171 20.0334 26.5746 20.3734L26.5908 20.4126C27.0281 21.4723 27.565 22.7732 26.788 23.84C26.0013 24.92 24.5613 24.8134 23.4013 24.7067C23.0329 24.6808 22.6631 24.6808 22.2946 24.7067C22.2088 24.9274 22.1005 25.3622 22.0214 25.6795L22.0013 25.76C21.748 26.8934 21.4146 28.3067 20.1213 28.72C19.9189 28.7867 19.7077 28.8226 19.4946 28.8267C18.5086 28.6929 17.5993 28.2218 16.9213 27.4934C16.6364 27.1945 16.3288 26.9181 16.0013 26.6667C15.6775 26.884 15.37 27.1246 15.0813 27.3867L15.0761 27.3912C14.2103 28.1371 13.1321 29.066 11.8813 28.72C10.628 28.3734 10.2546 26.8534 10.0013 25.72L9.98123 25.6396L9.98122 25.6395C9.90214 25.3222 9.79378 24.8874 9.70797 24.6667C9.33954 24.6408 8.96974 24.6408 8.6013 24.6667C7.4413 24.7734 6.01464 24.8934 5.21464 23.8C4.43533 22.735 4.95922 21.4675 5.39357 20.4166L5.42797 20.3334C5.58549 19.9934 5.71481 19.6411 5.81464 19.28C5.53027 19.0648 5.23182 18.8688 4.9213 18.6934C3.9213 18.1334 2.66797 17.3334 2.66797 16C2.66797 14.6667 3.9213 13.8667 4.9213 13.3334C5.23182 13.1579 5.53027 12.9619 5.81464 12.7467C5.71481 12.3856 5.58549 12.0333 5.42797 11.6934L5.41177 11.6541C4.97447 10.5944 4.43759 9.29348 5.21464 8.22669C6.0013 7.14669 7.4413 7.25336 8.6013 7.36003C8.96974 7.38596 9.33954 7.38596 9.70797 7.36003C9.79378 7.13936 9.90214 6.70453 9.98123 6.38718L9.98123 6.38715L10.0013 6.30669C10.2546 5.17336 10.588 3.76003 11.8813 3.34669C13.1446 2.94295 14.1663 3.82413 15.0207 4.56113L15.0813 4.61336C15.37 4.87546 15.6775 5.1161 16.0013 5.33336C16.3251 5.1161 16.6326 4.87546 16.9213 4.61336L16.9457 4.59238C17.8079 3.84937 18.8665 2.93722 20.1213 3.34669C21.388 3.76003 21.748 5.17336 22.0013 6.30669L22.0214 6.38718C22.1005 6.70453 22.2088 7.13936 22.2946 7.36003C22.6631 7.38596 23.0329 7.38596 23.4013 7.36003C24.5613 7.25336 25.988 7.13336 26.788 8.22669C27.5673 9.29174 27.0434 10.5592 26.609 11.6101L26.5746 11.6934C26.4171 12.0333 26.2878 12.3856 26.188 12.7467C26.4723 12.9619 26.7708 13.1579 27.0813 13.3334C28.0813 13.8667 29.3346 14.6667 29.3346 16C29.3346 17.3334 28.0813 18.1334 27.0813 18.7334ZM20.828 11.6267C21.3998 12.0846 21.4951 12.9182 21.0413 13.4934L15.708 20.16C15.4743 20.4574 15.1253 20.6416 14.748 20.6667H14.668C14.3136 20.6687 13.9729 20.5296 13.7213 20.28L11.0546 17.6134C10.5318 17.0905 10.5318 16.2429 11.0546 15.72C11.5775 15.1972 12.4251 15.1972 12.948 15.72L14.5613 17.3334L18.9613 11.84C19.4192 11.2682 20.2528 11.1729 20.828 11.6267ZM25.708 15.5467C25.908 15.6667 26.188 15.84 26.4146 16C26.188 16.16 25.908 16.3334 25.748 16.36C24.8252 16.756 24.0802 17.4773 23.6546 18.3867C23.4606 19.3892 23.6409 20.4281 24.1613 21.3067L24.4413 22.0134H23.668C22.6751 21.7965 21.6373 21.9481 20.748 22.44C19.9841 23.1297 19.5081 24.0818 19.4146 25.1067C19.3944 25.1875 19.3723 25.2797 19.3491 25.3768C19.3108 25.5364 19.2694 25.7093 19.228 25.8667C19.028 25.72 18.8146 25.5334 18.668 25.4C17.9714 24.6342 17.0272 24.1385 16.0013 24C14.9675 24.1896 14.0358 24.743 13.3746 25.56C13.228 25.6934 13.0146 25.88 12.8146 26.0267C12.7946 25.9505 12.7697 25.8708 12.7448 25.7906C12.6867 25.6042 12.628 25.4159 12.628 25.2667C12.5346 24.2418 12.0585 23.2897 11.2946 22.6C10.4053 22.1081 9.36749 21.9565 8.37464 22.1734H7.6013L7.8813 21.4667C8.40174 20.5881 8.58201 19.5492 8.38797 18.5467C7.96238 17.6373 7.21737 16.916 6.29464 16.52C6.09464 16.4 5.81464 16.2267 5.58797 16.0667C5.81464 15.9067 6.09464 15.7334 6.29464 15.6134C7.21737 15.2174 7.96238 14.4961 8.38797 13.5867C8.58201 12.5842 8.40174 11.5453 7.8813 10.6667L7.5213 9.96003H8.29464C9.28749 10.1769 10.3253 10.0253 11.2146 9.53336C11.9785 8.84369 12.4546 7.89159 12.548 6.86669C12.5682 6.78595 12.5903 6.69374 12.6135 6.59657C12.6518 6.43703 12.6932 6.26414 12.7346 6.10669C12.9346 6.25336 13.148 6.44003 13.2946 6.57336C14.0013 7.31459 14.9443 7.78612 15.9613 7.90669C16.9783 7.78612 17.9213 7.31459 18.628 6.57336C18.7746 6.44003 18.988 6.25336 19.188 6.10669C19.208 6.18285 19.2329 6.26263 19.2578 6.34276C19.3159 6.52917 19.3746 6.7175 19.3746 6.86669C19.4681 7.89159 19.9441 8.84369 20.708 9.53336C21.5973 10.0253 22.6351 10.1769 23.628 9.96003H24.4013L24.1213 10.6667C23.617 11.5268 23.4373 12.5389 23.6146 13.52C24.0402 14.4295 24.7852 15.1508 25.708 15.5467Z" fill="#F5AC37"/>
</svg>
