<svg width="146" height="24" viewBox="0 0 146 24" fill="none" xmlns="http://www.w3.org/2000/svg">
<path fill-rule="evenodd" clip-rule="evenodd" d="M19.7104 10V23.0431H34.2598V19.1117H23.9204V13.3848H32.4024V10H19.7104ZM37.9697 10V23.0431H45.1825C45.3579 23.0431 45.7191 23.0379 46.266 23.0276C46.8129 23.0173 47.3391 22.9812 47.8448 22.9193C49.6402 22.7026 51.1622 22.0783 52.4108 21.0464C53.6594 20.0145 54.6087 18.7041 55.2588 17.115C55.9089 15.5259 56.2339 13.7872 56.2339 11.8989C56.2339 11.2481 56.1953 10.6152 56.1181 10H51.6171C51.7232 10.6135 51.7762 11.2465 51.7762 11.8989C51.7762 12.9617 51.6266 13.9936 51.3273 14.9945C51.0384 15.9954 50.5844 16.8519 49.9653 17.5639C49.3565 18.2758 48.5671 18.7299 47.5971 18.9259C47.2153 18.9982 46.7871 19.0446 46.3124 19.0652C45.8378 19.0755 45.4611 19.0807 45.1825 19.0807H42.2417V10H37.9697ZM59.9474 0.754626V23.0431H64.1575V15.4898H68.855L72.5156 23.0431H77.2829L73.2588 14.7884C74.2332 14.3585 75.007 13.7358 75.5803 12.9204C76.509 11.5893 76.9733 9.9899 76.9733 8.1222C76.9733 6.87364 76.7721 5.74374 76.3697 4.7325C75.9673 3.71094 75.3378 2.86481 74.4814 2.19409C73.6352 1.52337 72.5466 1.08483 71.2155 0.878451C70.9266 0.826858 70.5964 0.795901 70.2249 0.785582C69.8637 0.764945 69.5748 0.754626 69.3581 0.754626H59.9474ZM69.1724 11.5583H64.1575V4.68606H69.1724C69.3891 4.68606 69.6264 4.69638 69.8844 4.71702C70.1423 4.73766 70.3797 4.77893 70.5964 4.84085C71.1639 4.99563 71.6024 5.25876 71.912 5.63023C72.2216 5.99139 72.4331 6.39898 72.5466 6.853C72.6704 7.29671 72.7323 7.71977 72.7323 8.1222C72.7323 8.52464 72.6704 8.95286 72.5466 9.40689C72.4331 9.85059 72.2216 10.2582 71.912 10.6297C71.6024 10.9908 71.1639 11.2488 70.5964 11.4036C70.3797 11.4655 70.1423 11.5068 69.8844 11.5274C69.6264 11.548 69.3891 11.5583 69.1724 11.5583ZM84.4778 22.0525C86.0978 23.0225 88.0223 23.5074 90.2511 23.5074C92.48 23.5074 94.3993 23.0225 96.009 22.0525C97.629 21.0825 98.8724 19.7256 99.7392 17.9818C100.616 16.2379 101.055 14.2103 101.055 11.8989C101.055 9.58747 100.616 7.55983 99.7392 5.81597C98.8724 4.0721 97.629 2.71519 96.009 1.74522C94.3993 0.775264 92.48 0.290283 90.2511 0.290283C88.0223 0.290283 86.0978 0.775264 84.4778 1.74522C82.8681 2.71519 81.6247 4.0721 80.7476 5.81597C79.8808 7.55983 79.4474 9.58747 79.4474 11.8989C79.4474 14.2103 79.8808 16.2379 80.7476 17.9818C81.6247 19.7256 82.8681 21.0825 84.4778 22.0525ZM93.7801 18.6318C92.8411 19.2613 91.6648 19.5657 90.2511 19.545C88.8375 19.5244 87.6611 19.1994 86.7221 18.5699C85.7831 17.9405 85.0763 17.0582 84.6016 15.9232C84.1373 14.7881 83.9051 13.4467 83.9051 11.8989C83.9051 10.3511 84.1373 8.9993 84.6016 7.8436C85.0763 6.6879 85.7831 5.79533 86.7221 5.16589C87.6611 4.53644 88.8375 4.23204 90.2511 4.25268C91.6648 4.27332 92.8411 4.59836 93.7801 5.2278C94.7192 5.85724 95.4208 6.73949 95.8852 7.87456C96.3598 9.00962 96.5972 10.3511 96.5972 11.8989C96.5972 13.4467 96.3598 14.7984 95.8852 15.9541C95.4208 17.1098 94.7192 18.0024 93.7801 18.6318ZM107.937 22.0525C109.557 23.0225 111.481 23.5074 113.71 23.5074C116.269 23.5074 118.415 22.8728 120.149 21.6036C121.893 20.3344 123.121 18.6164 123.833 16.4494L119.592 15.2731C119.179 16.6145 118.483 17.6619 117.502 18.4151C116.522 19.1684 115.258 19.545 113.71 19.545C112.296 19.545 111.115 19.2303 110.166 18.6009C109.227 17.9714 108.52 17.084 108.045 15.9386C107.57 14.7933 107.333 13.4467 107.333 11.8989C107.333 10.3511 107.57 9.00446 108.045 7.85908C108.52 6.7137 109.227 5.82629 110.166 5.19684C111.115 4.5674 112.296 4.25268 113.71 4.25268C115.258 4.25268 116.522 4.62931 117.502 5.38258C118.483 6.12553 119.179 7.17288 119.592 8.52464L123.833 7.3483C123.121 5.18136 121.893 3.46329 120.149 2.19409C118.415 0.924885 116.269 0.290283 113.71 0.290283C111.481 0.290283 109.557 0.775264 107.937 1.74522C106.327 2.71519 105.084 4.0721 104.207 5.81597C103.34 7.55983 102.906 9.58747 102.906 11.8989C102.906 14.2103 103.34 16.2379 104.207 17.9818C105.084 19.7256 106.327 21.0825 107.937 22.0525ZM127.241 0.754626V23.0431H131.451V12.8895L140.335 23.0431H145.66L135.754 11.7441L145.072 0.754626H139.933L131.451 11.0321V0.754626H127.241ZM0 0.754626V23.0431H9.87503C11.3919 23.0431 12.6508 22.7593 13.6517 22.1918C14.6526 21.614 15.3956 20.8194 15.8805 19.8082C16.3758 18.7969 16.6235 17.6258 16.6235 16.2946C16.6235 15.0564 16.2726 13.9368 15.571 12.9359C15.0683 12.2081 14.3801 11.6686 13.5065 11.3172C13.9987 11.0179 14.4134 10.6185 14.7506 10.1189C15.3182 9.29338 15.6019 8.25635 15.6019 7.00778C15.6019 6.0275 15.3749 5.05754 14.9209 4.0979C14.4669 3.13825 13.7497 2.34371 12.7694 1.71427C11.7892 1.07451 10.5045 0.754626 8.91539 0.754626H0ZM9.44165 19.0807H4.27196V13.3848H9.44165C10.0917 13.3848 10.6335 13.5086 11.0668 13.7562C11.5106 13.9936 11.8408 14.3186 12.0574 14.7314C12.2741 15.1441 12.3825 15.6136 12.3825 16.1399C12.3825 16.7383 12.2535 17.2594 11.9955 17.7032C11.7479 18.1365 11.4022 18.4771 10.9585 18.7247C10.5148 18.962 10.0092 19.0807 9.44165 19.0807ZM8.85348 9.45332H4.27196V4.68606H8.85348C9.65834 4.68606 10.2723 4.91824 10.6954 5.38258C11.1184 5.84692 11.33 6.41961 11.33 7.10065C11.33 7.64754 11.2216 8.09641 11.0049 8.44724C10.7882 8.78776 10.4942 9.04057 10.1227 9.20567C9.75121 9.37077 9.32814 9.45332 8.85348 9.45332Z" fill="white"/>
<rect width="19" height="11" transform="matrix(1 0 0 -1 38 19)" fill="#2C3242"/>
<path d="M53.0756 5.50194C53.0756 4.1223 51.9508 3.00389 50.5632 3.00389C49.1756 3.00389 48.0508 4.1223 48.0508 5.50194C48.0508 6.88158 49.1756 8 50.5632 8C51.9508 8 53.0756 6.88158 53.0756 5.50194Z" fill="#FF004C"/>
<path d="M43.0249 5.50194C43.0249 4.1223 41.9 3.00389 40.5124 3.00389C39.1249 3.00389 38 4.1223 38 5.50194C38 6.88158 39.1249 8 40.5124 8C41.9 8 43.0249 6.88158 43.0249 5.50194Z" fill="#FF004C"/>
</svg>
