<svg width="64" height="58" viewBox="0 0 64 58" fill="none" xmlns="http://www.w3.org/2000/svg">
<circle cx="3.43036" cy="3.18036" r="3.18036" fill="#F2F2F2"/>
<circle cx="41.5944" cy="3.18036" r="3.18036" fill="#F2F2F2"/>
<circle cx="22.5124" cy="3.18036" r="3.18036" fill="#F2F2F2"/>
<circle cx="60.6764" cy="3.18036" r="3.18036" fill="#F2F2F2"/>
<circle cx="3.43036" cy="15.9019" r="3.18036" fill="#F2F2F2"/>
<circle cx="41.5944" cy="15.9019" r="3.18036" fill="#F2F2F2"/>
<circle cx="22.5124" cy="15.9019" r="3.18036" fill="#F2F2F2"/>
<circle cx="60.6764" cy="15.9019" r="3.18036" fill="#F2F2F2"/>
<circle cx="3.43036" cy="28.6229" r="3.18036" fill="#F2F2F2"/>
<circle cx="41.5944" cy="28.6229" r="3.18036" fill="#F2F2F2"/>
<circle cx="22.5124" cy="28.6229" r="3.18036" fill="#F2F2F2"/>
<circle cx="60.6764" cy="28.6229" r="3.18036" fill="#F2F2F2"/>
<circle cx="3.43036" cy="41.3444" r="3.18036" fill="#F2F2F2"/>
<circle cx="41.5944" cy="41.3444" r="3.18036" fill="#F2F2F2"/>
<circle cx="22.5124" cy="41.3444" r="3.18036" fill="#F2F2F2"/>
<circle cx="60.6764" cy="41.3444" r="3.18036" fill="#F2F2F2"/>
<circle cx="3.43036" cy="54.066" r="3.18036" fill="#F2F2F2"/>
<circle cx="41.5944" cy="54.066" r="3.18036" fill="#F2F2F2"/>
<circle cx="22.5124" cy="54.066" r="3.18036" fill="#F2F2F2"/>
<circle cx="60.6764" cy="54.066" r="3.18036" fill="#F2F2F2"/>
</svg>
